# xmcd
#
# Track frame offsets:
#	150
#	10559
#	28732
#	40182
#	49877
#	63570
#	74297
#	83484
#	99924
#	117914
#	132348
#	142669
#	160033
#	173973
#	187245
#	201933
#	216641
#	232370
#	251398
#	262886
#	282074
#	292254
#	305751
#	319302
#
# Disc length: 4406 seconds
#
# Revision: 0
# Processed by: cddbd v1.4PL0 Copyright (c) Steve Scherf et al.
# Submitted via: EZCDDA 4.3.3.2
#
DISCID=69113418
DTITLE=Garth Brooks - Stillwater, OK 1986 - Ropin Stardom
DYEAR=1900
DGENRE=
TTITLE0=Tequila Sunrise
TTITLE1=Piano Man
TTITLE2=Much Too Young To Feel This Damn Old
TTITLE3=Time In A Bottle
TTITLE4=Rocket Man
TTITLE5=Why Don't These Dreams Come True
TTITLE6=That's The Way Love Goes
TTITLE7=Cat's In The Cradle
TTITLE8=Night Moves
TTITLE9=Mr. Bojangles
TTITLE10=House On Pooh Corner
TTITLE11=Redneck Mother
TTITLE12=My New Tony Lamas
TTITLE13=Which One Of Them
TTITLE14=Come Monday
TTITLE15=Mrs. Robinson
TTITLE16=Please Come To Boston
TTITLE17=Turn The Page
TTITLE18=Sweet Baby James
TTITLE19=I Still Remember You
TTITLE20=Guitar Town
TTITLE21=Only The Good Die Young
TTITLE22=The Boxer
TTITLE23=Steamroller
EXTD=
EXTT0=
EXTT1=
EXTT2=
EXTT3=
EXTT4=
EXTT5=
EXTT6=
EXTT7=
EXTT8=
EXTT9=
EXTT10=
EXTT11=
EXTT12=
EXTT13=
EXTT14=
EXTT15=
EXTT16=
EXTT17=
EXTT18=
EXTT19=
EXTT20=
EXTT21=
EXTT22=
EXTT23=
PLAYORDER=
